# xmcd
#
# Track frame offsets:
#	150
#	13662
#	24600
#	36505
#	50571
#	64244
#	75718
#	90858
#	102848
#	117332
#	127717
#	140479
#	155727
#	171378
#	184018
#
# Disc length: 2627 seconds
#
# Revision: 1
# Processed by: cddbd v1.5.1PL2 Copyright (c) Steve Scherf et al.
# Submitted via: dBpowerAMP V4.0
#
DISCID=c60a410f
DTITLE=Marlena Shaw - Out Of Different Bags
DYEAR=1967
DGENRE=Jazz
TTITLE0=Matchmaker, Matchmaker
TTITLE1=A Couple Of Loosers
TTITLE2=Its Sure Is Groovy
TTITLE3=Naked City Theme
TTITLE4=I Stayed Too Long At The Fair
TTITLE5=Eyes Of Love
TTITLE6=Will I Find My Love Today?
TTITLE7=Nothing But Tears
TTITLE8=I've Gotten Over You
TTITLE9=Somewhere In The Night
TTITLE10=Alone Together
TTITLE11=More
TTITLE12=Let's Wade In The Water
TTITLE13=Let It Be Me
TTITLE14=Show Time
EXTD=
EXTT0=
EXTT1=
EXTT2=
EXTT3=
EXTT4=
EXTT5=
EXTT6=
EXTT7=
EXTT8=
EXTT9=
EXTT10=
EXTT11=
EXTT12=
EXTT13=
EXTT14=
PLAYORDER=
